<?xml version="1.0" encoding="UTF-8" standalone="no"?>
<!-- Created with Inkscape (http://www.inkscape.org/) -->
<svg xmlns:rdf="http://www.w3.org/1999/02/22-rdf-syntax-ns#" xmlns="http://www.w3.org/2000/svg" xmlns:cc="http://web.resource.org/cc/" xmlns:xlink="http://www.w3.org/1999/xlink" xmlns:dc="http://purl.org/dc/elements/1.1/" xmlns:svg="http://www.w3.org/2000/svg" xmlns:inkscape="http://www.inkscape.org/namespaces/inkscape" xmlns:sodipodi="http://sodipodi.sourceforge.net/DTD/sodipodi-0.dtd" xmlns:ns1="http://sozi.baierouge.fr" id="svg2735" viewBox="0 0 180 126" version="1.0" y="0" x="0" inkscape:version="0.91 r13725">
  <defs id="defs2737">
    <linearGradient id="linearGradient3482">
      <stop id="stop3483" style="stop-color:#e6ff00" offset="0"/>
      <stop id="stop3484" style="stop-color:#a4d100;stop-opacity:.87156" offset=".19148"/>
      <stop id="stop3485" style="stop-color:#e6ff00" offset="1"/>
    </linearGradient>
    <linearGradient id="linearGradient3477">
      <stop id="stop3478" style="stop-color:#54ff00" offset="0"/>
      <stop id="stop3480" style="stop-color:#184b00" offset=".5"/>
      <stop id="stop3479" style="stop-color:#59ff00" offset="1"/>
    </linearGradient>
    <linearGradient id="linearGradient3471">
      <stop id="stop3472" style="stop-color:#194b00" offset="0"/>
      <stop id="stop3473" style="stop-color:#59ff00" offset="1"/>
    </linearGradient>
    <linearGradient id="linearGradient3464">
      <stop id="stop3465" style="stop-color:#329100" offset="0"/>
      <stop id="stop3466" style="stop-color:#59ff00" offset="1"/>
    </linearGradient>
    <linearGradient id="linearGradient3467" y2=".27869" xlink:href="#linearGradient3464" y1=".49180" x2=".43189" x1=".30897"/>
    <linearGradient id="linearGradient3468" y2=".17969" xlink:href="#linearGradient3464" y1=".78906" x2=".48031" x1=".33858"/>
    <linearGradient id="linearGradient3469" y2=".14062" xlink:href="#linearGradient3464" y1=".88281" x2=".65823" x1=".25316"/>
    <linearGradient id="linearGradient3470" y2=".085938" xlink:href="#linearGradient3471" y1=".78906" x2=".77108" x1=".91566"/>
    <linearGradient id="linearGradient3474" y2="1.0312" xlink:href="#linearGradient3471" y1=".21094" x2=".48235" x1=".68235"/>
    <linearGradient id="linearGradient3475" y2=".82812" xlink:href="#linearGradient3471" y1=".17188" x2=".46602" x1=".37864"/>
    <linearGradient id="linearGradient3476" y2=".82812" xlink:href="#linearGradient3477" y1=".20312" x2=".36697" x1=".53211"/>
    <linearGradient id="linearGradient3488" y2=".66964" xlink:href="#linearGradient3482" y1=".22321" x2=".31229" x1=".53821"/>
    <linearGradient id="linearGradient3586" y2=".5" xlink:href="#linearGradient3482" y1=".5" x1="-1.8496e-16"/>
    <linearGradient id="linearGradient3587" xlink:href="#linearGradient3482"/>
    <linearGradient id="linearGradient3651" y2="-.054688" xlink:href="#linearGradient3477" y1=".75781" x2=".54118" x1=".64706"/>
    <linearGradient id="linearGradient3652" y2=".89062" xlink:href="#linearGradient3477" y1=".023438" x2=".25490" x1=".23529"/>
  </defs>
  <g id="g6358" transform="matrix(.24343 0 0 .23716 -12.96 -67.608)">
    <path id="path3489" style="fill-rule:evenodd;stroke:#000000;stroke-width:1.25;fill:url(#linearGradient3587)" d="m612.93 547.44c37.95-47.19 47.87-56.05 84.21-103.38 11.59-13.17 28.49-33.89 47.16-51.67-11.59 18.26-21.33 26.31-29.25 35.82-11.91 14.32-24.97 31.34-36.42 45.32-19.2 23.43-46.5 53.9-64.97 79.56"/>
    <path id="path3408" style="fill-rule:evenodd;stroke:#000000;stroke-width:1pt;fill:url(#linearGradient3469)" d="m563.27 535.84c12.66-6.71 29.78-6.75 40.91 3.04 8.7 7.95 12.52 20.01 12.33 31.57-0.11 10.67-2.3 21.2-4.89 31.5-5.01 15.79-13.04 31.48-26.46 41.69-4.43 2.75-10.57 2.38-14.26-1.45-6.66-6.71-9.12-16.24-11.61-25.07-4.12-16.46-9.92-33.35-6.97-50.52 0.66-9.3 0.88-19.56 7-27.17 1.14-1.37 2.47-2.58 3.95-3.59z"/>
    <path id="path3650" style="fill-rule:evenodd;stroke:#000000;stroke-width:1pt;fill:url(#linearGradient3475)" d="m502.2 580.33c9.71 4.35 14.08 19.81 2.32 24.77-13.61 8.58-22.62-6.08-30.26-15.16-8.07-9.6-16.56-18.12-26.47-25.19-11.27-8.04-15.63-4.52-16.85 10.84-1.12 14.11-3.97 28.2-4.25 42.59-0.25 12.28-1.46 24.59 0.55 36.81 0.4 11.78-7.04 23.36-9.03 32.92-0.67 6.77-2.32 6.35-7.19 1-12.13-8.74 4.27-4.9-2.34-17.2-2.67-14.22 0.26-28.76 2.46-42.74 1.87-11.91 1.73-23.52 3.15-35.31 3.14-17.09 3.8-34.87 10.08-51.2 3.73-9.94 16.1-10.25 24.89-7.29 11.07 3.72 19.63 9.75 26.74 18.26 8 9.56 18.72 16.88 26.2 26.9z"/>
    <path id="path3436" style="fill-rule:evenodd;stroke:#000000;stroke-width:.83729pt;fill:url(#linearGradient3474)" d="m446.47 618.24c-5.07 8.86-3.61 25.15 11.94 19.95 13.66-4.68 16.42-19.39 21.44-28.4 4.4-7.9 20.5-27.8 25.11-18.66 12.65 25.12 13.87 54.52 25.27 80.85 1.3 13.15 14.8 16.64 25.49 22.23 15.92 4.02 4.54-20.29-6.24-20.73-11.57-3.94-10.88-17.59-12.51-27.01-0.89-20.77-6.31-40.89-14.01-60.16-2.29-10.38-8.46-28.76-25.15-20.38-13.36 6.71-21.06 18.08-30.76 28.35-7.2 7.61-15.45 15.14-20.58 23.96z"/>
    <path id="path3630" style="fill-rule:evenodd;stroke:#000000;stroke-width:1pt;fill:url(#linearGradient3476)" d="m378.72 638c15.29 5.31 22.89 7.36 34.38-0.24 10.18-8.29 3.31-13.39-6.6-18.74-9.88-7.53-15.55-18.1-25.55-25.37-11.52-5.32-18.62-20.64-29.76-26.67-20.42-9.05-40.74-15.45-60.11-26.85-20.53-10.14-29.17-15.36-48.25-28.63-9.92-6.9-26.9-21.19-35.03-28.42-8.48-7.55-28.61-5.51-33.1 6.37-0.05 10.24 1.59 19.03 6.79 31.7 5.15 6.78 16.16 8.83 20.9 16.37 18.28 23.39 52.27 48.08 46.94 36.47-7.07-12.88-10.26-15.82-17.74-28.7-3.97-3.1-6.86-11.2-9.49-16.28 10.87 7.89 19.07 20.41 30.33 28.22 14.86 10.3 29.66 23.39 43.64 35.77 11.13 8.31 20.17 19.96 32.59 26.6 15.58 9.75 32.47 14.33 50.06 18.4z"/>
    <path id="path3409" style="fill-rule:evenodd;stroke:#000000;stroke-width:1pt;fill:url(#linearGradient3467)" d="m501.39 621.83c-5.14 33.75-46.39 38.59-74.09 39.12-36.44 3.37-70.58-9.59-104.83-18.6-40.37-5.45-61.19-5.87-102.3-13.1-18.78-3.31-26.18-1.79-54.31-10.97-16.16-11.62-30.91-21.22-35.44-47.44 0.03-23.69 63.58-15.21 90.68-20.04 78.29-7.45 157.21-3.8 235.5-10.85 30.39 5.7 34.17 42.72 42.86 67 1.23 4.86 2.08 9.86 1.93 14.88z"/>
    <path id="path3442" style="fill-rule:evenodd;stroke:#000000;stroke-width:1pt;fill:url(#linearGradient3488)" d="m479.54 575.32c-33.2 9.48-59.76 38.56-96.06 37.12-32.22 0.63-64.33-3.44-96.39-5.8-22.85-0.28-38.13-19.53-60.03-21.96-37.4-6.68-76.78-5.68-112.25-20.86-19.193-5.92-9.22-32.69 7.29-34.49 81.86-6.77 164.13-1.79 246.11-5.73 27.91 0.16 56.92-2.46 83.8 6.42 16.41 7.08 36.63 24.31 33.28 43.06-0.77 0.55-4.6 2.05-5.75 2.24z"/>
    <path id="path3430" style="fill-rule:evenodd;stroke:#000000;stroke-width:1pt;fill:url(#linearGradient3476)" d="m344.22 653.16c15.1 6.14 30.26 5.1 42.07-1.82 10.53-7.68 5.74-22.31-3.98-28.2-9.59-8.05-19.89-15.35-29.62-23.16-11.33-5.95-22.34-12.47-33.26-19.11-20.1-10.16-40.21-17.68-59.16-30.12-20.17-11.26-28.62-16.95-47.22-31.24-9.66-7.43-26.11-22.62-33.97-30.28-8.2-7.99-28.45-7.1-33.42 4.48-0.45 10.19 4.41 21.48 5.55 31.95 4.9 7.04 15.85 9.7 20.3 17.48 17.39 24.33 28.73 56.22 41.56 78.46 5.46 12.11 12.27 25.33 20.26 36.56 7.06 10.51 13.92 21.22 21.64 31.24 8.95 7.14 8.12 18.41-0.32 25.45-4.9 10.68 12.44 4.35 17.71 3.6 14.67-2.04 7.46-16.69 1.6-23.91-15.98-24.68-26.85-52.08-40.07-78.23-7.25-10.74-11.91-22.33-16.79-34.2-6.58-13.22-9.65-16.33-16.64-29.59-3.85-3.31-6.44-11.53-8.87-16.74 10.58 8.47 18.31 21.4 29.28 29.81 14.48 11.1 28.79 24.97 42.31 38.09 10.82 8.9 19.42 21.01 31.6 28.32 15.23 10.6 31.97 16.11 49.44 21.16z"/>
    <path id="path3423" style="fill-rule:evenodd;stroke:#000000;stroke-width:1pt;fill:url(#linearGradient3651)" d="m451.3 617.14c9.7 4.34 14.07 19.8 2.31 24.76-13.6 8.58-22.62-6.07-30.25-15.16-8.07-9.59-16.56-18.12-26.48-25.19-11.27-8.04-15.62-4.52-16.84 10.85-1.13 14.1-3.98 28.2-4.26 42.58-0.24 12.28-1.45 24.59 0.55 36.82 0.4 11.77-7.03 23.36-9.02 32.91-0.68 6.77-2.33 6.35-7.19 1-12.14-8.73 4.26-4.89-2.34-17.19-2.68-14.23 0.26-28.77 2.45-42.74 1.87-11.92 1.73-23.52 3.15-35.31 3.14-17.09 3.81-34.87 10.09-51.21 3.73-9.94 16.09-10.25 24.88-7.29 11.08 3.73 19.64 9.76 26.75 18.26 7.99 9.56 18.72 16.89 26.2 26.91z"/>
    <path id="path3454" style="fill-rule:evenodd;stroke:#000000;stroke-width:1pt;fill:url(#linearGradient3470)" d="m602.91 569.95c-1.47 16.93-10.25 34.71-19.49 33.91-9.23-0.8-15.45-19.89-13.98-36.82s8.49-22.93 17.72-22.13c9.24 0.8 17.22 8.1 15.75 25.04z"/>
    <path id="path3410" style="fill-rule:evenodd;stroke:#000000;stroke-width:1pt;fill:url(#linearGradient3468)" d="m458.31 529.9c27.21-0.69 59.82 3.73 92.5 2.02 22.24 3.48 5.21 15.2 2.17 40.48 1.09 29.33 15.69 39.41-19.1 54.67-19.81 10.11-46.42 3.84-53.9-18.78-5.15-20.58-8.01-41.33-19.99-59.71-3.04-3.33-16.43-18.3-1.68-18.68z"/>
    <path id="path3567" style="fill-rule:evenodd;stroke:#000000;stroke-width:1.25;fill:url(#linearGradient3586)" d="m606 551.21c14.61-18.92 22.45-27.42 35.68-44.78 29.06-41.21 61.68-76.87 90.09-119.06-7.03 4.74-13.96 15.18-20.59 22.42-8.65 9.92-17.18 20.55-25.27 31.47-14.69 19.29-29.02 37.17-43.48 56.81-12.07 16.5-25.04 30.34-37.57 48.26"/>
    <path id="path3633" style="fill-rule:evenodd;stroke:#000000;stroke-width:.70533pt;fill:url(#linearGradient3652)" d="m515.47 602.98c9.22 3.7 9.29 18.88-3.16 17.36-9.12 2.72-19.73-11.59-26.18-2.95-0.85 12.44 2.09 24.87 3.83 37.15 3.13 16.46 5.34 33.18 6.66 49.81-1.43 6.88-8.36 25.09-17.36 17.76-5.28-8.97 3.33-17.02 6.76-24.92 1.53-10.2-4.25-20.03-5.94-30.02-6.18-21.56-8.22-44.05-9.36-66.38 0.85-11.85 15.68-8.92 23.3-5.83 7.46 1.84 14.91 4.1 21.45 8.02z"/>
  </g>
  <metadata>
    <rdf:RDF>
      <cc:Work>
        <dc:format>image/svg+xml</dc:format>
        <dc:type rdf:resource="http://purl.org/dc/dcmitype/StillImage"/>
        <cc:license rdf:resource="http://creativecommons.org/licenses/publicdomain/"/>
        <dc:publisher>
          <cc:Agent rdf:about="http://openclipart.org/">
            <dc:title>Openclipart</dc:title>
          </cc:Agent>
        </dc:publisher>
        <dc:title>Grasshopper</dc:title>
        <dc:date>2010-04-05T19:42:43</dc:date>
        <dc:description>Originally posted by Jonathon Love from OCAL 0.18</dc:description>
        <dc:source>https://openclipart.org/detail/38029/grasshopper-by-anonymous</dc:source>
        <dc:creator>
          <cc:Agent>
            <dc:title>Anonymous</dc:title>
          </cc:Agent>
        </dc:creator>
        <dc:subject>
          <rdf:Bag>
            <rdf:li>animal</rdf:li>
            <rdf:li>grasshopper</rdf:li>
            <rdf:li>insect</rdf:li>
          </rdf:Bag>
        </dc:subject>
      </cc:Work>
      <cc:License rdf:about="http://creativecommons.org/licenses/publicdomain/">
        <cc:permits rdf:resource="http://creativecommons.org/ns#Reproduction"/>
        <cc:permits rdf:resource="http://creativecommons.org/ns#Distribution"/>
        <cc:permits rdf:resource="http://creativecommons.org/ns#DerivativeWorks"/>
      </cc:License>
    </rdf:RDF>
  </metadata>
</svg>
